<svg xmlns="http://www.w3.org/2000/svg" width="14" height="13" viewBox="0 0 14 13"><defs><style>.cls-2{fill:#fff}.cls-3,.cls-4{stroke:none}.cls-4{fill:#fff}</style></defs><g id="plus_mini" transform="rotate(-90 156.298 180.946)"><path id="사각형_3204" fill="none" d="M0 0h13v14H0z" transform="translate(324.244 24.648)"/><g id="그룹_9059" transform="translate(325.352 25.215)"><g id="합치기_1" class="cls-2"><path d="M.43 6.488a.531.531 0 01-.53-.531V.431A.531.531 0 01.962.43v5.527a.531.531 0 01-.531.531z" class="cls-3" transform="translate(3.238)"/><path d="M.43 0A.431.431 0 000 .43v5.527a.43.43 0 10.862 0V.431A.431.431 0 00.43 0m0-.2a.63.63 0 01.63.63v5.527a.63.63 0 11-1.261 0V.431A.633.633 0 01.43-.2z" class="cls-4" transform="translate(3.238)"/></g><g id="합치기_14" class="cls-2"><path d="M.43 11.433a.532.532 0 01-.53-.531V.43a.53.53 0 011.062 0v10.472c0 .292-.238.53-.531.53z" class="cls-3" transform="translate(6.562)"/><path d="M.43 0A.431.431 0 000 .43v10.472a.43.43 0 10.862 0V.43A.431.431 0 00.43 0m0-.2a.63.63 0 01.63.63v10.472a.63.63 0 11-1.261 0V.43A.633.633 0 01.43-.2z" class="cls-4" transform="translate(6.562)"/></g><g id="합치기_15" class="cls-2"><path d="M.43 11.433a.532.532 0 01-.53-.531V.43a.53.53 0 011.062 0v10.472c0 .292-.238.53-.531.53z" class="cls-3" transform="translate(9.64)"/><path d="M.43 0A.431.431 0 000 .43v10.472a.43.43 0 10.862 0V.43A.431.431 0 00.43 0m0-.2a.63.63 0 01.63.63v10.472a.63.63 0 11-1.261 0V.43A.633.633 0 01.43-.2z" class="cls-4" transform="translate(9.64)"/></g><g id="합치기_16" class="cls-2"><path d="M2.586 5.27a.47.47 0 01-.47-.468V3.055H.37a.47.47 0 010-.94h1.747V.37a.469.469 0 01.938 0v1.747h1.747a.47.47 0 01-.001.939H3.056v1.747a.47.47 0 01-.47.469z" class="cls-3" transform="translate(0 7.695)"/><path d="M2.586 5.17a.369.369 0 00.369-.368V2.955h1.847a.37.37 0 00-.001-.74H2.956V.37A.371.371 0 002.585 0a.369.369 0 00-.368.369v1.847H.37a.37.37 0 100 .739h1.847v1.847c0 .203.164.369.369.369m0 .2a.571.571 0 01-.57-.57V3.156H.37a.571.571 0 010-1.14h1.647V.37a.57.57 0 011.138 0v1.647h1.647a.57.57 0 01-.001 1.139H3.156v1.647a.57.57 0 01-.57.569z" class="cls-4" transform="translate(0 7.695)"/></g></g></g></svg>